<?xml version="1.0" encoding="UTF-8" standalone="no"?>
<svg
   xmlns:dc="http://purl.org/dc/elements/1.1/"
   xmlns:cc="http://creativecommons.org/ns#"
   xmlns:rdf="http://www.w3.org/1999/02/22-rdf-syntax-ns#"
   xmlns:svg="http://www.w3.org/2000/svg"
   xmlns="http://www.w3.org/2000/svg"
   xmlns:sodipodi="http://sodipodi.sourceforge.net/DTD/sodipodi-0.dtd"
   xmlns:inkscape="http://www.inkscape.org/namespaces/inkscape"
   inkscape:version="1.0 (4035a4f, 2020-05-01)"
   height="448.39999"
   width="260.99222"
   sodipodi:docname="Serie A logo 2022.svg"
   xml:space="preserve"
   viewBox="0 0 260.99223 448.4"
   y="0px"
   x="0px"
   id="Livello_1"
   version="1.0"><metadata
   id="metadata922"><rdf:RDF><cc:Work
       rdf:about=""><dc:format>image/svg+xml</dc:format><dc:type
         rdf:resource="http://purl.org/dc/dcmitype/StillImage" /><dc:title></dc:title></cc:Work></rdf:RDF></metadata><defs
   id="defs920">
	
	
	
	
</defs><sodipodi:namedview
   inkscape:current-layer="Livello_1"
   inkscape:window-maximized="1"
   inkscape:window-y="25"
   inkscape:window-x="0"
   inkscape:cy="277.08619"
   inkscape:cx="-54.494807"
   inkscape:zoom="0.89035829"
   fit-margin-bottom="0"
   fit-margin-right="0"
   fit-margin-left="0"
   fit-margin-top="0"
   inkscape:guide-bbox="true"
   showguides="true"
   inkscape:pagecheckerboard="true"
   showgrid="false"
   id="namedview918"
   inkscape:window-height="793"
   inkscape:window-width="1440"
   inkscape:pageshadow="2"
   inkscape:pageopacity="0"
   guidetolerance="10"
   gridtolerance="10"
   objecttolerance="10"
   borderopacity="1"
   bordercolor="#666666"
   pagecolor="#ffffff" />
<style
   id="style833"
   type="text/css">
	.st0{fill:#FFFFFF;}
	.st1{fill:#0032A0;}
	.st2{fill:#C8102E;}
	.st3{fill:#00B74F;}
	.st4{fill:#E4002B;}
	.st5{fill:#1A1659;}
	.st6{fill:url(#SVGID_1_);}
	.st7{fill:url(#SVGID_2_);}
</style>
<rect
   style="stroke-width:0.971688"
   x="0"
   id="rect835"
   height="361.80392"
   width="260.99222"
   class="st0"
   y="0" />

<rect
   style="stroke-width:0.926161"
   id="rect837"
   height="86.596069"
   width="260.99222"
   class="st1"
   y="361.80392"
   x="0" /><g
   transform="translate(-20.852028,-0.11975509)"
   id="g1066"><g
     id="g954"
     transform="matrix(0.92616116,0,0,0.92616116,20.807784,33.109335)"><path
       style="fill:#ffffff"
       class="st2"
       d="m 228.9,397.1 c -0.1,0.1 -0.1,0.2 -0.2,0.4 -2.1,5.4 -4.3,10.8 -6.4,16.2 -0.7,1.6 -1.3,3.2 -1.9,4.8 -0.3,0.8 -0.8,1.3 -1.6,1.3 -2.8,0 -5.6,0 -8.3,0 -0.9,0 -1.4,-0.5 -1.8,-1.4 -2.6,-6.1 -5.2,-12.2 -7.8,-18.3 -0.4,-0.9 -0.7,-1.9 -1.2,-2.9 0,0.2 0,0.5 0,0.7 0,9.6 0,19.1 0,28.7 0,1.2 -0.2,1.5 -1.4,1.6 -2.4,0.1 -4.7,0.1 -7.1,0.2 -0.8,0 -1.7,0 -2.5,-0.1 -1.1,-0.1 -1.3,-0.3 -1.3,-1.4 0,-16.7 0,-33.3 0,-50 0,-1 0.2,-1.3 1.3,-1.4 0.7,-0.1 1.4,-0.1 2.1,-0.1 2.6,0 5.2,0 7.8,0 0.9,0 1.7,0.2 2.6,0.4 0.4,0.1 0.9,0.6 1.1,1 2.7,6.4 5.5,12.9 8.2,19.4 1.6,3.8 3,7.7 4.5,11.5 0,0 0.1,-0.2 0.1,-0.3 2,-5.2 4.1,-10.5 6.2,-15.7 2,-4.9 4.1,-9.8 6.1,-14.7 0.4,-0.9 1,-1.4 1.9,-1.5 1.4,-0.1 2.7,-0.1 4.1,-0.1 1.8,0 3.5,0 5.3,0 0.7,0 1.3,0.2 2,0.3 0.6,0.1 0.8,0.5 0.8,1.1 0,1.8 0,3.6 0,5.3 0,14.9 0,29.8 0,44.7 0,1.1 -0.2,1.5 -1.3,1.5 -2.3,0.1 -4.6,0.1 -7,0.2 -0.9,0 -1.8,0 -2.7,-0.1 -1,-0.1 -1.2,-0.4 -1.2,-1.4 0,-9.7 0,-19.3 0,-29 0,-0.2 0,-0.4 0,-0.7 -0.4,-0.2 -0.4,-0.2 -0.4,-0.2 z"
       id="path839" /><path
       style="fill:#ffffff"
       class="st3"
       d="m 131.6,386.6 c -2.1,0 -4.1,0 -6.1,0 -2,0 -3.9,0 -5.9,0 -0.8,0 -1.1,-0.2 -1.2,-1 -0.1,-0.5 -0.1,-1.1 -0.1,-1.6 0,-2.2 0,-4.4 0,-6.6 0,-0.4 0.1,-0.8 0.1,-1.3 0.1,-0.8 0.3,-1 1.1,-1 7.7,0 15.3,0 23,0 4.5,0 8.9,0 13.4,0 0.8,0 1.1,0.2 1.1,1 0.1,0.8 0.1,1.7 0.1,2.5 0,2.2 0,4.4 -0.1,6.6 0,1.1 -0.4,1.3 -1.4,1.3 -3.7,0 -7.3,0 -11,0 -0.2,0 -0.5,0 -0.7,0 0,0.3 0,0.5 0,0.7 0,13.1 0,26.2 0,39.2 0,1.2 -0.2,1.5 -1.4,1.6 -2.3,0.1 -4.7,0.1 -7,0.2 -0.9,0 -1.8,-0.1 -2.7,-0.2 -0.8,-0.1 -1,-0.4 -1,-1.2 0,-13.2 0,-26.3 0,-39.5 -0.2,-0.2 -0.2,-0.4 -0.2,-0.7 z"
       id="path841" /><path
       style="fill:#ffffff"
       class="st0"
       d="m 165.2,401.7 c 0,-8.3 0,-16.6 0,-25 0,-1.1 0.2,-1.3 1.3,-1.5 1,-0.1 2,-0.2 3,-0.1 2.1,0 4.2,0.1 6.3,0.1 0.3,0 0.5,0.1 0.8,0.2 0.6,0.2 0.9,0.5 0.9,1.2 0,3.2 0,6.5 0,9.7 0,13.4 0,26.9 0,40.3 0,1.2 -0.2,1.5 -1.3,1.6 -2.4,0.1 -4.7,0.1 -7.1,0.2 -0.9,0 -1.8,0 -2.7,-0.1 -0.9,-0.1 -1.1,-0.4 -1.1,-1.3 -0.1,-8.6 -0.1,-17 -0.1,-25.3 z"
       id="path843" /></g><g
     id="g855"
     transform="matrix(0.92616116,0,0,0.92616116,20.807784,33.109335)">
		<path
   id="path845"
   d="m 72.3,375.1 c 9.6,0 19.1,0 28.7,0 1.6,0 3.1,1.4 3.1,3 0,1.9 0,3.8 0,5.7 0,1.3 -1.2,2.6 -2.5,2.7 -0.7,0.1 -1.5,0.1 -2.2,0.1 -18.4,0 -36.8,0 -55.2,0 -1.4,0 -2.6,-0.4 -3.2,-1.7 -0.2,-0.4 -0.3,-0.9 -0.3,-1.3 0,-1.8 0,-3.7 0,-5.5 0,-1.6 1.3,-2.9 2.9,-2.9 9.5,-0.1 19.1,-0.1 28.7,-0.1 z"
   class="st4" />
		<path
   id="path847"
   d="m 78.6,396 c 0.2,0 0.4,0 0.6,0 7.2,0 14.4,0 21.6,0 1.6,0 2.7,0.8 3.1,2.2 0.1,0.3 0.1,0.6 0.1,0.9 0,1.8 0,3.6 0,5.4 0,1.5 -1.3,2.8 -2.8,2.8 -7.4,0 -14.9,0 -22.3,0 -0.1,0 -0.2,0 -0.4,0 0.1,-3.7 0.1,-7.5 0.1,-11.3 z"
   class="st4" />
		<path
   id="path849"
   d="m 78.6,428.2 c 0,-3.8 0,-7.5 0,-11.3 0.2,0 0.4,0 0.6,0 7.2,0 14.3,0 21.5,0 1.7,0 2.7,0.7 3.2,2.2 0.1,0.3 0.1,0.6 0.1,0.9 0,1.8 0,3.7 0,5.5 0,1.4 -1.4,2.7 -2.7,2.7 -7.4,0 -14.9,0 -22.3,0 -0.1,0 -0.2,0 -0.4,0 z"
   class="st4" />
		<path
   id="path851"
   d="m 66,416.9 c 0,3.8 0,7.5 0,11.3 -0.2,0 -0.5,0 -0.7,0 -7.3,0 -14.5,0 -21.8,0 -1.7,0 -3,-1.3 -3,-3 0,-1.8 0,-3.6 0,-5.5 0,-1.5 1.3,-2.9 2.8,-2.9 7.4,0 14.8,0 22.1,0 0.2,0.1 0.4,0.1 0.6,0.1 z"
   class="st4" />
		<path
   id="path853"
   d="m 65.9,407.3 c -0.3,0 -0.5,0 -0.8,0 -7.2,0 -14.3,0 -21.5,0 -1.7,0 -3.3,-1.4 -3.2,-3.2 0.1,-1.8 0,-3.5 0,-5.3 0,-1.5 1.3,-2.9 2.8,-2.9 7.4,0 14.9,0 22.3,0 0.1,0 0.2,0 0.3,0 0.1,3.9 0.1,7.6 0.1,11.4 z"
   class="st4" />
	</g></g>
<g
   transform="matrix(0.92616116,0,0,0.92616116,0.84137887,0.42544866)"
   id="g871">
	<path
   id="path859"
   d="m 39,329.8 c -0.2,-0.2 -0.4,-0.7 -0.1,-1 l 4.6,-5.3 c 0.2,-0.3 0.6,-0.3 0.9,-0.1 2.7,2.2 6.4,4.2 10.8,4.2 4.3,0 6.7,-2 6.7,-4.9 0,-2.4 -1.5,-3.9 -6.4,-4.6 l -2.2,-0.3 c -8.4,-1.2 -13,-5.1 -13,-12.3 0,-7.6 5.7,-12.6 14.6,-12.6 5.4,0 10.5,1.6 14,4.3 0.4,0.2 0.4,0.5 0.1,0.9 l -3.7,5.5 c -0.2,0.3 -0.5,0.4 -0.8,0.2 -3.1,-2.1 -6.2,-3.1 -9.6,-3.1 -3.6,0 -5.5,1.9 -5.5,4.5 0,2.4 1.7,3.9 6.4,4.5 L 58,310 c 8.5,1.2 13,5 13,12.5 0,7.4 -5.5,13 -16.2,13 -6.4,-0.1 -12.6,-2.6 -15.8,-5.7 z"
   class="st5" />
	<path
   id="path861"
   d="m 75.8,294.2 c 0,-0.4 0.2,-0.6 0.6,-0.6 h 26.4 c 0.4,0 0.6,0.2 0.6,0.6 v 6.5 c 0,0.4 -0.2,0.6 -0.6,0.6 H 85 c -0.2,0 -0.4,0.1 -0.4,0.4 v 8.2 c 0,0.2 0.1,0.4 0.4,0.4 h 14.8 c 0.4,0 0.6,0.2 0.6,0.6 v 6.4 c 0,0.4 -0.2,0.6 -0.6,0.6 H 85 c -0.2,0 -0.4,0.1 -0.4,0.4 v 8.5 c 0,0.2 0.1,0.4 0.4,0.4 h 17.7 c 0.4,0 0.6,0.2 0.6,0.6 v 6.5 c 0,0.4 -0.2,0.6 -0.6,0.6 H 76.4 c -0.4,0 -0.6,-0.2 -0.6,-0.6 z"
   class="st5" />
	<path
   id="path863"
   d="m 131.5,334.7 c -0.5,0 -0.7,-0.2 -0.9,-0.6 L 123.5,319 H 118 c -0.2,0 -0.4,0.1 -0.4,0.4 v 14.7 c 0,0.4 -0.2,0.6 -0.6,0.6 h -7.7 c -0.4,0 -0.6,-0.2 -0.6,-0.6 v -40 c 0,-0.4 0.2,-0.6 0.6,-0.6 h 16.4 c 8.4,0 14,5.3 14,12.8 0,5.3 -2.8,9.4 -7.3,11.4 l 8.1,16.2 c 0.2,0.4 0,0.7 -0.4,0.7 h -8.6 z m -0.6,-28.3 c 0,-3.1 -2.2,-5.1 -5.6,-5.1 H 118 c -0.2,0 -0.4,0.1 -0.4,0.4 v 9.5 c 0,0.2 0.1,0.4 0.4,0.4 h 7.3 c 3.4,-0.1 5.6,-2.1 5.6,-5.2 z"
   class="st5" />
	<path
   id="path865"
   d="m 145.3,294.2 c 0,-0.4 0.2,-0.6 0.6,-0.6 h 7.7 c 0.4,0 0.6,0.2 0.6,0.6 v 40 c 0,0.4 -0.2,0.6 -0.6,0.6 H 146 c -0.4,0 -0.6,-0.2 -0.6,-0.6 v -40 z"
   class="st5" />
	<path
   id="path867"
   d="m 160.9,294.2 c 0,-0.4 0.2,-0.6 0.6,-0.6 h 26.4 c 0.4,0 0.6,0.2 0.6,0.6 v 6.5 c 0,0.4 -0.2,0.6 -0.6,0.6 h -17.7 c -0.2,0 -0.4,0.1 -0.4,0.4 v 8.2 c 0,0.2 0.1,0.4 0.4,0.4 H 185 c 0.4,0 0.6,0.2 0.6,0.6 v 6.4 c 0,0.4 -0.2,0.6 -0.6,0.6 h -14.8 c -0.2,0 -0.4,0.1 -0.4,0.4 v 8.5 c 0,0.2 0.1,0.4 0.4,0.4 h 17.7 c 0.4,0 0.6,0.2 0.6,0.6 v 6.5 c 0,0.4 -0.2,0.6 -0.6,0.6 h -26.4 c -0.4,0 -0.6,-0.2 -0.6,-0.6 z"
   class="st5" />
	<path
   id="path869"
   d="m 218.1,294.2 c 0.1,-0.4 0.4,-0.6 0.8,-0.6 h 7.6 c 0.4,0 0.7,0.2 0.8,0.6 l 13.9,40 c 0.1,0.4 0,0.6 -0.4,0.6 h -7.9 c -0.4,0 -0.7,-0.2 -0.8,-0.6 l -2.4,-7.2 h -14.4 l -2.3,7.2 c -0.1,0.4 -0.4,0.6 -0.8,0.6 h -7.9 c -0.4,0 -0.5,-0.2 -0.4,-0.6 z m 9.2,25.2 -4.7,-14.4 h -0.2 l -4.7,14.4 z"
   class="st5" />
</g>
<g
   transform="matrix(0.92616116,0,0,0.92616116,0.04630987,1.1093283)"
   id="g915">
	<g
   id="g898">
		<g
   id="g896">
			<g
   id="g894">
				<polygon
   id="polygon873"
   points="40.5,209.2 101.9,209.2 140.8,272.8 "
   class="st5" />
				<polygon
   id="polygon875"
   points="241.2,209.2 179.7,209.2 140.8,272.8 "
   class="st5" />
				<polygon
   id="polygon877"
   points="101.9,209.2 140.8,209.2 179.7,209.2 140.8,106.5 "
   class="st5" />
				<linearGradient
   y2="240.95979"
   x2="179.7025"
   y1="240.95979"
   x1="101.9403"
   gradientUnits="userSpaceOnUse"
   id="SVGID_1_">
					<stop
   id="stop879"
   style="stop-color:#31ECFF"
   offset="0" />
					<stop
   id="stop881"
   style="stop-color:#2DE2FF"
   offset="4.937099e-02" />
					<stop
   id="stop883"
   style="stop-color:#1BB2FF"
   offset="0.2964" />
					<stop
   id="stop885"
   style="stop-color:#0E90FF"
   offset="0.5147" />
					<stop
   id="stop887"
   style="stop-color:#067BFF"
   offset="0.694" />
					<stop
   id="stop889"
   style="stop-color:#0373FF"
   offset="0.8118" />
				</linearGradient>
				<polygon
   style="fill:url(#SVGID_1_)"
   id="polygon892"
   points="140.8,272.8 179.7,209.2 101.9,209.2 "
   class="st6" />
			</g>
		</g>
	</g>
	<linearGradient
   y2="241.42371"
   x2="129.11411"
   y1="50.923302"
   x1="198.45061"
   gradientUnits="userSpaceOnUse"
   id="SVGID_2_">
		<stop
   id="stop900"
   style="stop-color:#31ECFF"
   offset="0" />
		<stop
   id="stop902"
   style="stop-color:#2DE2FF"
   offset="4.882737e-02" />
		<stop
   id="stop904"
   style="stop-color:#1BB2FF"
   offset="0.2932" />
		<stop
   id="stop906"
   style="stop-color:#0E90FF"
   offset="0.5091" />
		<stop
   id="stop908"
   style="stop-color:#067BFF"
   offset="0.6863" />
		<stop
   id="stop910"
   style="stop-color:#0373FF"
   offset="0.8028" />
	</linearGradient>
	<path
   style="fill:url(#SVGID_2_)"
   id="path913"
   d="m 140.8,106.5 16.8,44.3 H 136.4 L 122,189 h 50.1 l 7.6,20.2 h 61.5 L 168.5,40 c -18.5,0 -36.9,0 -55.4,0 L 40.5,209.2 H 102 Z"
   class="st7" />
</g>
<g
   transform="matrix(0.94871791,0,0,0.93333333,-33.55458,21.875727)"
   id="g1035"><rect
     style="opacity:1;fill:#00a346;fill-opacity:1;stroke:none;stroke-width:0.137619;stroke-linecap:round;stroke-linejoin:round;paint-order:stroke fill markers"
     id="rect1009"
     width="65"
     height="15"
     x="75.418297"
     y="329.15222" /><rect
     y="329.15222"
     x="140.4183"
     height="15"
     width="65"
     id="rect1009-5"
     style="opacity:1;fill:#e2e2e2;fill-opacity:1;stroke:none;stroke-width:0.137619;stroke-linecap:round;stroke-linejoin:round;paint-order:stroke fill markers" /><rect
     y="329.15222"
     x="205.4183"
     height="15"
     width="65"
     id="rect1009-55"
     style="opacity:1;fill:#db052b;fill-opacity:1;stroke:none;stroke-width:0.137619;stroke-linecap:round;stroke-linejoin:round;paint-order:stroke fill markers" /></g></svg>
